<svg xmlns="http://www.w3.org/2000/svg" width="223" height="40" fill="none"><g fill="#fff" clip-path="url(#a)"><path d="M11.34 7.623c-6.056 0-9.181 3.19-9.181 6.866 0 3.472 2.01 4.83 5.36 6.068 3.59 1.317 4.478 2.075 4.478 3.314 0 1.238-.927 1.793-2.274 1.793-1.47 0-2.7-.758-2.893-2.715H0c.232 4.79 3.82 7.182 9.49 7.182s9.762-2.477 9.762-7.03c0-3.189-1.662-5.027-5.709-6.463-3.434-1.2-4.168-1.714-4.168-3.071 0-.877.657-1.476 1.733-1.476 1.16 0 1.894.837 2.087 2.313h6.791c-.232-3.874-2.7-6.78-8.64-6.78m22.377-.159c-8.453 0-12.809 6.068-12.809 12.933 0 5.628 3.434 9.502 10.11 9.502 8.446 0 12.808-6.069 12.808-12.934 0-5.627-3.434-9.501-10.11-9.501Zm-2.203 17.56c-2.236 0-3.28-1.997-3.28-4.79 0-4.027 1.662-7.9 4.98-7.9 2.236 0 3.28 1.995 3.28 4.79 0 4.026-1.662 7.9-4.98 7.9ZM56.518 0h-6.945l-3.782 21.79c-.348 1.996-.541 3.472-.541 4.671 0 2.313 1.507 3.269 4.82 3.269 1.54 0 2.622-.08 3.705-.238l.767-4.428c-1.507.08-2.043-.124-2.043-1.238 0-.56.116-1.278.27-2.155L56.52 0Zm13.041 7.465c-8.447 0-12.809 6.068-12.809 12.933 0 5.628 3.434 9.502 10.109 9.502 8.447 0 12.809-6.069 12.809-12.934 0-5.627-3.434-9.501-10.11-9.501Zm-2.198 17.56c-2.236 0-3.28-1.997-3.28-4.79 0-4.027 1.663-7.9 4.98-7.9 2.237 0 3.28 1.995 3.28 4.79 0 4.026-1.661 7.9-4.98 7.9Zm42.746-17.56c-1.888 0-3.396.317-5.052 1.555l-1.965 2.274c-.542-2.195-2.435-3.83-5.787-3.83-1.893 0-3.24.442-4.67 1.24l-2.043 2.273.502-2.952h-6.945L80.519 29.34h6.946l1.932-11.255c.619-3.63 2.236-5.745 4.091-5.745 1.7 0 2.43 1.035 2.43 2.833 0 .877-.194 2.194-.348 3.314l-1.855 10.858h6.945l1.933-11.254c.579-3.472 2.39-5.746 4.317-5.746 1.469 0 2.197 1.035 2.197 2.834 0 .961-.193 2.358-.347 3.314l-1.855 10.858h6.945l2.12-12.453c.309-1.759.502-3.031.502-4.111 0-2.873-1.888-5.305-6.365-5.305m20.756-.017c-8.447 0-12.808 6.068-12.808 12.933 0 5.628 3.434 9.502 10.109 9.502 8.447 0 12.808-6.069 12.808-12.934 0-5.627-3.434-9.501-10.109-9.501Zm-2.197 17.56c-2.236 0-3.279-1.997-3.279-4.79 0-4.027 1.661-7.9 4.98-7.9 2.236 0 3.279 1.995 3.279 4.79 0 4.026-1.662 7.9-4.98 7.9Zm30.362-17.56c-1.888 0-3.434.441-4.859 1.238l-2.313 2.359.541-3.032h-6.945l-3.628 21.315h6.946l1.662-9.897c.85-4.83 2.583-7.103 4.786-7.103 2.043 0 2.739 1.2 2.739 2.992 0 .758-.155 1.917-.387 3.314l-1.855 10.7h6.946l2.12-12.295c.309-1.798.463-2.997.463-4.111 0-3.156-2.004-5.469-6.211-5.469m7.475 21.859h4.085l1.695-5.469c.657-2.075 1.508-4.394 2.623-6.226.695-1.12 2.203-3.032 3.633-3.032.811 0 1.236.515 1.236 1.318s-.463 2.279-.695 3.037l-1.198 3.992c-.387 1.2-.851 2.715-.851 3.954a2.84 2.84 0 0 0 2.816 2.833c2.97 0 5.251-3.518 6.294-6.108l-.734-.243c-.58 1.08-1.778 3.716-3.125 3.716-.464 0-.773-.6-.773-1.08 0-.521.502-2.116.696-2.676l1.236-4.038c.387-1.153.735-2.674.735-3.873 0-2.036-1.309-3.433-3.28-3.433-3.086 0-5.515 2.675-6.752 5.31l-.077-.08 3.782-14.731-8.862.577.563 1.142c.922 0 2.932 0 2.932 1.357 0 1.035-.889 4.151-1.121 5.147l-4.858 18.606Z"/><path d="M198.556 21.547c-1.269 1.6-4.814 5.995-6.978 5.995-1.656 0-2.468-1.437-2.468-2.998 0-.757.116-1.515.232-2.279 3.357-.876 10.192-2.392 10.192-6.91 0-2.517-2.706-3.354-4.71-3.354-5.985 0-10.23 5.83-10.23 11.78 0 3.676 2.043 5.95 5.559 5.95 3.319 0 5.902-2.495 7.675-5.21l.728-2.985v.011Zm-8.866-.554c.541-2.194 1.965-7.787 4.748-7.787.927 0 1.43.718 1.43 1.64 0 3.155-3.589 5.35-6.173 6.153"/><path d="m208.063 2.51-8.182.521-.309 1.199c.922 0 2.932 0 2.932 1.357 0 .798-.503 2.754-.734 3.591l-3.473 13.375c-.309 1.239-.735 2.873-.735 4.112 0 1.877.967 3.076 2.778 3.076 3.163 0 7.061-5.112 7.989-7.793l-.266-2.307c-.347.995-4.245 7.465-5.366 7.465-.657 0-.696-.962-.696-1.437 0-.956.464-2.477.696-3.433l5.366-19.725Z"/><path d="m215.624 5.633-3.898.186s-4.013 14.682-4.03 14.84c-.127 1.125-.48 1.04-.315 1.866-1.308 4.044-1.755 7.799-3.058 11.842-.232 1.001-.657 2.913-1.237 3.716-.464.679-1.386.6-2.12.718l-.271 1.2c1.585-.04 3.131-.12 4.71-.16 1.584.04 3.125.125 4.709.16l.309-1.2c-1.082-.119-2.583-.119-2.583-1.595 0-.639.27-1.436.425-2.036l2.042-8.024h.078c.695 1.634 2.009 2.595 3.782 2.595 5.598 0 8.839-6.91 8.839-11.977 0-3.196-1.463-5.752-4.787-5.752-2.01 0-3.705 1.04-4.864 2.635l-.077-.079 2.352-8.93-.006-.005Zm-2.506 21.909c-1.392 0-1.933-1.358-1.933-2.596 0-2.438 1.817-10.74 5.251-10.74 1.43 0 2.125 1.16 2.125 2.477 0 2.873-1.965 10.858-5.443 10.858ZM169.726 5.463c0 2.256-1.766 4.089-3.953 4.089-2.186 0-3.953-1.833-3.953-4.09 0-2.256 1.773-4.088 3.953-4.088 2.181 0 3.953 1.832 3.953 4.089Z"/></g><defs><clipPath id="a"><path fill="#fff" d="M0 0h223v40H0z"/></clipPath></defs></svg>