<svg width="42" height="63" viewBox="0 0 42 63" fill="none" xmlns="http://www.w3.org/2000/svg">
<path d="M42 21.1409C42 31.4437 25.6488 56.1568 21.803 61.8269C21.4119 62.4034 20.5881 62.4034 20.197 61.8269C16.3512 56.1568 0 31.4437 0 21.1409C0 9.46512 9.40202 0 21 0C32.598 0 42 9.46512 42 21.1409Z" fill="white"/>
<circle cx="21" cy="20" r="16" fill="#0071FF"/>
<path d="M22.0785 11C17.2298 11 14.7282 13.5508 14.7282 16.4905C14.7282 19.2673 16.337 20.3528 19.0199 21.3432C21.8928 22.397 22.6044 23.003 22.6044 23.9935C22.6044 24.9839 21.8619 25.4271 20.7834 25.4271C19.6077 25.4271 18.6221 24.8211 18.4674 23.2563H13C13.1856 27.0869 16.0586 29 20.5978 29C25.137 29 28.4122 27.0191 28.4122 23.3784C28.4122 20.8276 27.0818 19.3578 23.842 18.209C21.0928 17.2503 20.505 16.8387 20.505 15.7533C20.505 15.0523 21.0309 14.5729 21.8928 14.5729C22.821 14.5729 23.4088 15.2422 23.5635 16.4226H29C28.8144 13.3246 26.8387 11 22.0829 11" fill="white"/>
</svg>
