<svg width="143" height="30" fill="none" xmlns="http://www.w3.org/2000/svg"><rect width="143" height="30" rx="15" fill="#fff"/><g clip-path="url(#a)"><path d="M66.053 11.407 68.2 9.808h-7.188v9.58H68.2v-1.6h-5.135v-2.446h4.388v-1.599h-4.388v-2.336h2.988ZM55.582 13.54h-2.49v-2.133h3.984l2.147-1.599H51.04v9.58h4.279c2.396 0 3.78-1.098 3.78-3.01 0-1.835-1.244-2.838-3.516-2.838Zm-.342 4.248h-2.147v-2.65h2.147c1.307 0 1.914.44 1.914 1.333 0 .894-.654 1.317-1.914 1.317ZM74.022 9.808h-3.905v9.58h2.054v-2.713h1.867c2.49 0 4.045-1.317 4.045-3.433 0-2.117-1.556-3.434-4.06-3.434Zm-.046 5.268h-1.82v-3.669h1.82c1.322 0 2.038.659 2.038 1.835 0 1.175-.716 1.834-2.038 1.834ZM47.523 17.318a3.687 3.687 0 0 1-1.774.454c-1.852 0-3.19-1.332-3.19-3.166 0-1.835 1.339-3.167 3.19-3.167a3.084 3.084 0 0 1 1.867.595l1.478-1.097-.093-.094c-.856-.768-2.007-1.16-3.314-1.16-1.416 0-2.707.486-3.641 1.364a4.74 4.74 0 0 0-1.431 3.496 4.969 4.969 0 0 0 1.431 3.559 5.132 5.132 0 0 0 3.625 1.41c1.478 0 2.77-.517 3.641-1.457l-1.322-.988-.467.25ZM102.773 9.824v9.58h2.053v-3.92h4.373v3.92h2.053v-9.58h-2.053v3.935h-4.373V9.824h-2.053Zm-3.532 9.58h2.162l-4.014-9.58h-2.085l-4.092 9.58h2.07l.824-1.93h4.357l.778 1.93Zm-4.512-3.528 1.587-3.842 1.493 3.842h-3.08Zm21.129-.345h1.276l3.142 3.856h2.645l-4.2-4.954 3.671-4.625h-2.349l-3.049 4.108h-1.136V9.808h-2.054v9.58h2.054V15.53Zm-31.43-1.976v-2.132h5.369v-1.6h-7.422v9.58h4.279c2.396 0 3.78-1.097 3.78-3.01 0-1.834-1.244-2.838-3.516-2.838h-2.49Zm0 4.249v-2.65h2.148c1.307 0 1.914.44 1.914 1.333 0 .894-.638 1.333-1.914 1.333h-2.147v-.016ZM34.191 9.745a8.52 8.52 0 0 1 .95 1.584l-7.189 5.346-3.018-1.913v-2.289l3.002 1.897 6.255-4.625Z" fill="#21A038"/><path d="M21.867 14.605c0-.11 0-.203.016-.313l-1.82-.094c0 .125-.016.266-.016.392a7.97 7.97 0 0 0 2.318 5.628l1.292-1.301a6.05 6.05 0 0 1-1.79-4.312Z" fill="url(#b)"/><path d="M27.933 8.491c.11 0 .203 0 .312.016l.093-1.835c-.125 0-.265-.015-.39-.015a7.85 7.85 0 0 0-5.585 2.336l1.292 1.301a5.985 5.985 0 0 1 4.278-1.803Z" fill="url(#c)"/><path d="M27.936 20.72c-.11 0-.203 0-.311-.016l-.094 1.835c.125 0 .265.015.39.015a7.85 7.85 0 0 0 5.585-2.336l-1.292-1.301a5.896 5.896 0 0 1-4.278 1.803Z" fill="url(#d)"/><path d="m31.357 9.557 1.54-1.144a7.867 7.867 0 0 0-4.963-1.772v1.834a6.086 6.086 0 0 1 3.423 1.082Z" fill="url(#e)"/><path d="M35.84 14.605c0-.486-.048-.956-.125-1.426l-1.696 1.27v.156a6.095 6.095 0 0 1-2.007 4.531L33.24 20.5a7.969 7.969 0 0 0 2.598-5.895Z" fill="#21A038"/><path d="M27.936 20.72a6.008 6.008 0 0 1-4.496-2.022l-1.354 1.238a7.825 7.825 0 0 0 5.85 2.619V20.72Z" fill="url(#f)"/><path d="M23.874 10.075 22.645 8.71a7.938 7.938 0 0 0-2.598 5.895h1.82a6.12 6.12 0 0 1 2.007-4.53Z" fill="url(#g)"/></g><defs><linearGradient id="b" x1="22.171" y1="19.995" x2="20.312" y2="14.581" gradientUnits="userSpaceOnUse"><stop offset=".144" stop-color="#F2E913"/><stop offset=".304" stop-color="#E7E518"/><stop offset=".582" stop-color="#CADB26"/><stop offset=".891" stop-color="#A3CD39"/></linearGradient><linearGradient id="c" x1="22.882" y1="8.786" x2="27.601" y2="6.974" gradientUnits="userSpaceOnUse"><stop offset=".059" stop-color="#0FA8E0"/><stop offset=".538" stop-color="#0099F9"/><stop offset=".923" stop-color="#0291EB"/></linearGradient><linearGradient id="d" x1="27.424" y1="20.994" x2="33.05" y2="19.713" gradientUnits="userSpaceOnUse"><stop offset=".123" stop-color="#A3CD39"/><stop offset=".285" stop-color="#86C339"/><stop offset=".869" stop-color="#21A038"/></linearGradient><linearGradient id="e" x1="27.56" y1="7.809" x2="32.237" y2="9.264" gradientUnits="userSpaceOnUse"><stop offset=".057" stop-color="#0291EB"/><stop offset=".79" stop-color="#0C8ACB"/></linearGradient><linearGradient id="f" x1="22.549" y1="20.227" x2="27.573" y2="22.119" gradientUnits="userSpaceOnUse"><stop offset=".132" stop-color="#F2E913"/><stop offset=".298" stop-color="#EBE716"/><stop offset=".531" stop-color="#D9E01F"/><stop offset=".802" stop-color="#BBD62D"/><stop offset=".983" stop-color="#A3CD39"/></linearGradient><linearGradient id="g" x1="21.442" y1="14.827" x2="23.451" y2="9.56" gradientUnits="userSpaceOnUse"><stop offset=".07" stop-color="#A3CD39"/><stop offset=".26" stop-color="#81C55F"/><stop offset=".922" stop-color="#0FA8E0"/></linearGradient><clipPath id="a"><path fill="#fff" transform="translate(20 6.5)" d="M0 0h103v17H0z"/></clipPath></defs></svg>